PathFileType	4	(X/Y/Z)	C:/Users/opensim2020/Desktop/walking_exp_matlab/subject02_walking10_straight_01.trc																																																																																																																															
DataRate	CameraRate	NumFrames	NumMarkers	Units	OrigDataRate	OrigDataStartFrame	OrigNumFrames																																																																																																																											
100	100	7	43	mm	100	449	328																																																																																																																											
Frame#	Time	LFHD			RFHD			LBHD			RBHD			C7			T10			CLAV			STRN			RBAK			LSHO			LUPA			LELB			LFRM			LWRA			LWRB			LFIN			RSHO			RUPA			RELB			RFRM			RWRA			RWRB			RFIN			LASI			RASI			LPSI			RPSI			LTHI			LKNE			LTIB			LANK			LHEE			LTOE			RTHI			RKNE			RTIB			RANK			RHEE			RTOE			*39			*40			*41			*42		
		X1	Y1	Z1	X2	Y2	Z2	X3	Y3	Z3	X4	Y4	Z4	X5	Y5	Z5	X6	Y6	Z6	X7	Y7	Z7	X8	Y8	Z8	X9	Y9	Z9	X10	Y10	Z10	X11	Y11	Z11	X12	Y12	Z12	X13	Y13	Z13	X14	Y14	Z14	X15	Y15	Z15	X16	Y16	Z16	X17	Y17	Z17	X18	Y18	Z18	X19	Y19	Z19	X20	Y20	Z20	X21	Y21	Z21	X22	Y22	Z22	X23	Y23	Z23	X24	Y24	Z24	X25	Y25	Z25	X26	Y26	Z26	X27	Y27	Z27	X28	Y28	Z28	X29	Y29	Z29	X30	Y30	Z30	X31	Y31	Z31	X32	Y32	Z32	X33	Y33	Z33	X34	Y34	Z34	X35	Y35	Z35	X36	Y36	Z36	X37	Y37	Z37	X38	Y38	Z38	X39	Y39	Z39	X40	Y40	Z40	X41	Y41	Z41	X42	Y42	Z42	X43	Y43	Z43
																																																																																																																																		
1	0	-1338.82666	1724.63525	1272.07898	-1354.59558	1710.16565	1417.50684	-1474.57825	1662.75549	1252.95349	-1502.37756	1646.51978	1393.26379	-1547.5343	1523.63696	1322.8678	-1612.96265	1249.87048	1325.44678	-1409.31128	1450.82813	1321.20068	-1366.10168	1278.41882	1337.79614	-1617.22717	1353.40674	1387.48962	-1466.32178	1491.20215	1146.84509	-1454.75244	1288.20728	1064.01965	-1437.49292	1147.21045	1053.49084	-1401.26355	1019.80957	1048.2677	-1328.33228	909.52502	1093.74023	-1366.97961	902.02594	1053.4342	-1334.34216	843.73444	1055.43835	-1478.1377	1489.44641	1512.80725	-1492.32532	1300.64673	1604.00244	-1454.57056	1159.0177	1632.08508	-1393.55286	1053.12756	1644.80017	-1319.0658	943.00897	1613.4928	-1355.21765	928.30927	1654.21399	-1301.15942	879.18927	1647.69995	-1374.44531	982.71497	1216.58411	-1406.36792	973.97693	1470.99255	-1591.89758	1027.67029	1273.88452	-1609.95374	1028.42151	1387.14807	-1430.65332	667.23792	1174.95898	-1463.43237	466.57162	1215.09082	-1520.60388	278.76611	1223.10547	-1521.53479	59.04536	1273.71948	-1561.3269	32.16936	1324.47424	-1366.7312	27.92382	1269.67847	-1460.65906	676.18622	1564.37817	-1428.37366	474.54343	1560.72766	-1534.86865	323.14572	1545.37244	-1613.48706	149.71927	1502.29138	-1641.54504	101.55094	1435.10986	-1513.47363	47.47706	1570.5387	-1441.51465	1801.16333	1352.13232	2845.20264	1034.20935	-3360.27539	NaN	NaN	NaN	NaN	NaN	NaN
2	0.01	-1333.73621	1724.54346	1273.20667	-1349.77979	1709.58862	1418.14319	-1469.34058	1662.84021	1253.48535	-1497.68738	1646.04968	1393.60852	-1542.53052	1523.55811	1323.06226	-1608.29956	1249.87219	1326.00073	-1404.54468	1450.66162	1321.20776	-1361.73181	1277.97302	1337.10938	-1612.23621	1353.20654	1387.61902	-1461.54749	1491.37354	1146.91455	-1448.03271	1288.51208	1063.78162	-1429.07214	1147.92834	1052.94592	-1390.50586	1021.21857	1048.41992	-1315.49988	912.72644	1095.46448	-1353.79626	903.97516	1054.39197	-1319.87915	846.53326	1057.07617	-1473.04358	1488.95532	1512.86633	-1487.77087	1300.08508	1603.99902	-1450.56885	1158.43835	1632.18384	-1389.83691	1052.14514	1644.54614	-1315.67773	941.99274	1613.64343	-1352.12	927.56842	1654.47498	-1298.0592	878.18195	1648.22754	-1371.03284	982.17798	1215.69543	-1399.84692	974.02686	1470.95007	-1587.99329	1027.59924	1274.8269	-1605.25452	1028.35645	1388.1532	-1429.00684	666.95673	1174.59155	-1461.72119	466.42526	1215.08789	-1519.73694	278.78271	1223.14832	-1521.45374	59.05913	1273.84375	-1560.95996	31.22527	1324.47473	-1366.45728	27.56957	1269.52466	-1451.90344	676.75604	1564.64807	-1416.48645	475.21851	1560.4071	-1519.6488	321.14084	1548.20996	-1593.93555	144.87665	1507.85474	-1621.86218	95.17879	1441.8761	-1489.86951	46.79508	1574.90491	-1436.76294	1800.84985	1353.2478	2845.19897	1034.16931	-3360.29565	NaN	NaN	NaN	NaN	NaN	NaN
3	0.02	-1328.54626	1725.07458	1274.67188	-1345.26575	1709.22205	1419.52283	-1464.11011	1662.81189	1254.0647	-1492.98096	1645.57153	1394.05859	-1537.59338	1523.43921	1323.27332	-1603.53052	1249.85559	1326.55737	-1399.5249	1450.37305	1321.10388	-1357.17334	1277.68213	1336.56946	-1607.55286	1353.3175	1387.94556	-1456.70471	1491.56152	1147.10046	-1441.3429	1288.94031	1063.72388	-1420.88416	1148.68872	1052.3125	-1379.72852	1022.55548	1048.73816	-1302.58337	916.25385	1097.42017	-1340.74268	905.91522	1055.77576	-1305.59021	849.41876	1058.75232	-1467.69177	1488.4303	1513.05188	-1483.16968	1299.59009	1604.05908	-1446.57092	1157.86609	1632.31238	-1386.2738	1051.54175	1645.29785	-1312.40173	940.92523	1614.39429	-1348.97681	926.61145	1654.86194	-1294.99622	876.97723	1648.6991	-1367.41089	981.63843	1215.11829	-1393.54785	974.19775	1470.93396	-1584.03796	1027.58728	1275.78821	-1600.45618	1028.22437	1389.15955	-1426.52368	666.38354	1174.802	-1460.04529	466.17844	1215.22778	-1518.87561	278.85904	1223.23547	-1521.38513	59.10117	1273.95496	-1560.95691	31.40359	1324.63647	-1366.2019	27.2733	1269.43323	-1442.85706	677.28046	1564.60144	-1404.93396	475.81561	1560.05811	-1504.40833	318.88718	1550.83179	-1574.0553	140.19254	1513.37085	-1602.13196	89.3085	1448.30969	-1465.44006	45.93234	1578.88318	-1432.04492	1800.59351	1354.40198	2845.29004	1034.1604	-3360.2832	NaN	NaN	NaN	NaN	NaN	NaN
4	0.03	-1323.60828	1724.72144	1275.61926	-1340.81653	1708.94775	1420.98987	-1459.01636	1663.12512	1254.72937	-1488.16333	1645.04358	1394.54956	-1532.54285	1523.32935	1323.63025	-1598.75342	1249.84167	1327.20264	-1394.68408	1450.18042	1321.32727	-1352.15735	1277.35388	1336.40698	-1602.4696	1353.05872	1388.21228	-1451.82251	1491.65906	1147.3075	-1435.04114	1289.50891	1063.6615	-1412.66699	1149.31689	1051.83118	-1369.03052	1023.8103	1049.1731	-1290.42822	919.37463	1098.94421	-1328.50317	908.28906	1056.91663	-1291.77148	852.46686	1060.43665	-1462.51575	1487.98828	1513.2688	-1478.5177	1299.09949	1604.16003	-1442.5708	1157.22571	1632.53833	-1382.70166	1050.68835	1645.52747	-1309.17834	939.78412	1614.84521	-1345.92737	925.63947	1655.31409	-1292.14197	875.88269	1649.38135	-1363.67896	981.12622	1214.70007	-1389.677	973.80676	1470.34241	-1579.95886	1027.47485	1276.73926	-1595.604	1028.07361	1390.17297	-1424.33008	666.06256	1174.90405	-1458.37891	466.01126	1215.33838	-1518.04126	278.95117	1223.34607	-1521.32715	59.1437	1274.06946	-1560.90027	31.45667	1324.72522	-1366.03931	26.95692	1269.3075	-1433.83887	677.65741	1564.27502	-1393.82361	476.74261	1559.97168	-1488.58789	316.62415	1553.57227	-1553.88538	135.57092	1518.78369	-1581.76514	83.29765	1454.65344	-1440.64575	45.01794	1582.50818	-1427.2981	1800.32458	1355.62695	2845.20117	1034.14832	-3360.40259	NaN	NaN	NaN	NaN	NaN	NaN
5	0.04	-1318.39661	1724.80774	1277.00916	-1335.87891	1708.42249	1421.89368	-1453.6366	1662.91943	1255.37854	-1483.29138	1644.49036	1395.06458	-1527.526	1523.17859	1324.00305	-1593.89661	1249.78394	1327.88159	-1389.76379	1449.90759	1321.625	-1347.51208	1276.8479	1336.07678	-1597.63867	1353.1571	1388.67017	-1446.84985	1491.76306	1147.63	-1429.24341	1290.06006	1063.37134	-1404.20288	1149.62488	1051.98694	-1358.7511	1025.2135	1049.53809	-1278.5332	922.52246	1100.45093	-1315.59485	910.28839	1058.33801	-1278.23242	855.66846	1062.19861	-1456.95483	1487.13831	1513.45715	-1473.81006	1298.49512	1604.40332	-1438.54321	1156.54895	1632.8064	-1379.22974	1049.61951	1645.69226	-1306.10278	938.61127	1615.60425	-1342.99268	924.59137	1655.90796	-1289.37061	874.75671	1650.30823	-1359.52051	980.92493	1214.59937	-1384.60071	973.91577	1470.11133	-1575.8634	1027.41748	1277.75256	-1590.70032	1027.88684	1391.26709	-1422.10095	665.84564	1174.95203	-1456.78223	465.8992	1215.45215	-1517.23999	279.11636	1223.50391	-1521.28394	59.19531	1274.16309	-1560.75476	31.47595	1324.80115	-1365.77234	26.70495	1269.27551	-1425.18713	677.97339	1564.28772	-1382.69958	477.26843	1559.58875	-1472.95532	314.39764	1556.2262	-1533.4917	131.25861	1523.85901	-1560.92505	77.97821	1460.89636	-1416.40271	44.91415	1585.57935	-1422.52576	1799.99646	1356.87305	2845.24805	1033.96985	-3360.33521	NaN	NaN	NaN	NaN	NaN	NaN
6	0.05	-1313.17505	1724.91528	1278.38965	-1331.19971	1707.99463	1423.33179	-1448.2384	1662.83447	1256.1698	-1478.35706	1643.92126	1395.66638	-1522.38391	1522.98608	1324.4917	-1589.00427	1249.69934	1328.5752	-1387.69995	1449.36133	1320.69873	-1342.78662	1276.31555	1335.76807	-1592.43323	1352.88623	1389.05334	-1441.87988	1491.85608	1148.02588	-1423.1062	1290.60693	1063.47815	-1396.66907	1150.61865	1051.46045	-1348.57751	1026.55847	1050.09924	-1266.63574	925.33276	1102.0575	-1303.68164	912.67572	1059.41956	-1264.82092	858.6236	1063.92102	-1451.58545	1486.70337	1513.95276	-1469.04321	1298.03235	1604.64978	-1434.48486	1155.87891	1633.17944	-1375.75183	1048.90515	1646.66931	-1303.02832	937.33728	1616.35498	-1340.29333	923.51624	1656.68787	-1286.7218	873.37286	1651.15222	-1355.28186	980.59802	1214.46582	-1377.31555	973.90204	1470.32837	-1571.64319	1027.19824	1278.72791	-1585.74915	1027.67859	1392.33716	-1419.80078	665.67169	1175.09924	-1455.11133	465.74139	1215.5896	-1516.41125	279.20477	1223.65881	-1521.21741	59.24857	1274.33569	-1561.22266	32.14875	1325.10376	-1365.89978	26.24532	1269.09326	-1416.80579	678.40253	1564.40173	-1371.62427	477.68347	1558.96362	-1457.27856	312.22601	1558.91821	-1512.64624	127.01041	1528.73035	-1540.04626	72.31543	1466.69885	-1392.18396	44.23975	1588.30542	-1417.66211	1799.61487	1358.18506	2845.07715	1034.23914	-3360.31274	NaN	NaN	NaN	NaN	NaN	NaN
7	0.06	-1308.03638	1724.82544	1279.86157	-1325.97974	1707.2041	1423.97058	-1443.02673	1662.96997	1256.98645	-1473.36682	1643.37817	1396.35193	-1517.19385	1522.80542	1325.08191	-1584.03003	1249.60144	1329.33801	-1382.61035	1449.05103	1321.02112	-1338.08228	1275.8064	1335.64185	-1587.37292	1352.69299	1389.60461	-1436.83337	1491.8938	1148.52405	-1416.80603	1290.89661	1063.72717	-1388.75488	1151.02917	1051.60242	-1338.5636	1027.90356	1050.79956	-1255.53711	928.27557	1103.19873	-1291.6554	914.81525	1060.89526	-1251.97302	861.75543	1065.65137	-1446.18298	1486.04846	1514.35779	-1464.19299	1297.37573	1605.07019	-1430.39673	1155.18506	1633.53455	-1372.29541	1047.94739	1647.27991	-1300.05518	936.03198	1617.17249	-1337.47534	922.32703	1657.42456	-1284.06604	871.91986	1652.04468	-1353.09778	980.2262	1213.54224	-1372.22876	973.55762	1470.14355	-1567.38074	1027.00671	1279.73267	-1580.67798	1027.38464	1393.39648	-1417.42773	665.39856	1175.2561	-1453.4812	465.58066	1215.74792	-1515.64697	279.36917	1223.8302	-1521.1532	59.32741	1274.42969	-1561.08228	32.18126	1325.16968	-1365.80212	26.09076	1268.98352	-1408.64111	678.74615	1564.58533	-1361.03271	478.26663	1558.42273	-1441.52832	310.05115	1561.4613	-1492.59729	123.25977	1533.54126	-1519.10278	67.38071	1472.35901	-1367.20032	43.94807	1590.47913	-1412.68823	1799.22046	1359.53113	2845.29443	1034.09363	-3360.36572	NaN	NaN	NaN	NaN	NaN	NaN
